NotoSerif-LightItalic.ufo
<glyph name="tbar" format="2">
  <advance width="305"/>
  <unicode hex="0167"/>
  <anchor x="97" y="0" name="bottom"/>
  <anchor x="237" y="659" name="top"/>
  <anchor x="208" y="268" name="center"/>
  <anchor x="339" y="536" name="topright"/>
  <outline>
    <contour>
      <point x="49" y="307" type="line"/>
      <point x="117" y="307" type="line"/>
      <point x="136" y="307" type="line"/>
      <point x="267" y="307" type="line"/>
      <point x="272" y="332" type="line"/>
      <point x="143" y="332" type="line"/>
      <point x="124" y="332" type="line"/>
      <point x="55" y="332" type="line"/>
    </contour>
    <component base="t"/>
  </outline>
</glyph>
<glyph name="uni0197" format="2">
  <advance width="324"/>
  <unicode hex="0197"/>
  <anchor x="105" y="0" name="bottom"/>
  <anchor x="257" y="714" name="top"/>
  <anchor x="399" y="714" name="topright"/>
  <outline>
    <contour>
      <point x="71" y="362" type="line"/>
      <point x="281" y="362" type="line"/>
      <point x="288" y="387" type="line"/>
      <point x="78" y="387" type="line"/>
    </contour>
    <component base="I"/>
  </outline>
</glyph>
<glyph name="uni0243" format="2">
  <advance width="626"/>
  <unicode hex="0243"/>
  <anchor x="260" y="0" name="bottom"/>
  <anchor x="412" y="714" name="top"/>
  <anchor x="707" y="714" name="topright"/>
  <outline>
    <contour>
      <point x="31" y="194" type="line"/>
      <point x="286" y="194" type="line"/>
      <point x="292" y="219" type="line"/>
      <point x="37" y="219" type="line"/>
    </contour>
    <component base="B"/>
  </outline>
</glyph>
<glyph name="uni0247" format="2">
  <advance width="438"/>
  <unicode hex="0247"/>
  <anchor x="107" y="-258" name="bottom"/>
  <anchor x="314" y="714" name="top"/>
  <anchor x="455" y="536" name="topright"/>
  <outline>
    <contour>
      <point x="106" y="-207" type="line"/>
      <point x="132" y="-207" type="line"/>
      <point x="340" y="714" type="line"/>
      <point x="314" y="714" type="line"/>
    </contour>
    <component base="e"/>
  </outline>
</glyph>
<glyph name="uni024E" format="2">
  <advance width="538"/>
  <unicode hex="024E"/>
  <anchor x="211" y="0" name="bottom"/>
  <anchor x="363" y="714" name="top"/>
  <anchor x="613" y="714" name="topright"/>
  <outline>
    <contour>
      <point x="64" y="553" type="line"/>
      <point x="592" y="553" type="line"/>
      <point x="598" y="578" type="line"/>
      <point x="70" y="578" type="line"/>
    </contour>
    <component base="Y"/>
  </outline>
</glyph>
<glyph name="uni02BE" format="2">
  <advance width="171"/>
  <unicode hex="02BE"/>
  <outline>
    <contour>
      <point x="95" y="572" type="line"/>
      <point x="174" y="572"/>
      <point x="231" y="632"/>
      <point x="231" y="709" type="curve" smooth="yes"/>
      <point x="231" y="760"/>
      <point x="195" y="784"/>
      <point x="140" y="784" type="curve"/>
      <point x="135" y="762" type="line"/>
      <point x="174" y="762"/>
      <point x="207" y="746"/>
      <point x="207" y="704" type="curve" smooth="yes"/>
      <point x="207" y="647"/>
      <point x="164" y="594"/>
      <point x="99" y="594" type="curve"/>
    </contour>
  </outline>
</glyph>
<glyph name="afii10193" format="2">
  <advance width="504"/>
  <unicode hex="045F"/>
  <anchor x="144" y="-234" name="bottom"/>
  <anchor x="308" y="536" name="top"/>
  <anchor x="543" y="536" name="topright"/>
  <outline>
    <contour>
      <point x="144" y="-228" type="curve" smooth="yes"/>
      <point x="233" y="-228"/>
      <point x="263" y="-196"/>
      <point x="304" y="-13" type="curve"/>
      <point x="275" y="-27" type="line"/>
      <point x="235" y="-200"/>
      <point x="194" y="-203"/>
      <point x="152" y="-203" type="curve" smooth="yes"/>
      <point x="138" y="-203"/>
      <point x="120" y="-203"/>
      <point x="103" y="-201" type="curve"/>
      <point x="99" y="-226" type="line"/>
      <point x="116" y="-227"/>
      <point x="129" y="-228"/>
    </contour>
    <component base="u"/>
  </outline>
</glyph>
<glyph name="uni0488" format="2">
  <advance width="989"/>
  <unicode hex="0488"/>
  <outline>
    <contour>
      <point x="670" y="462" type="curve"/>
      <point x="697" y="462" type="line"/>
      <point x="701" y="512"/>
      <point x="733" y="527"/>
      <point x="773" y="527" type="curve" smooth="yes"/>
      <point x="806" y="527"/>
      <point x="843" y="512"/>
      <point x="847" y="462" type="curve"/>
      <point x="876" y="462" type="line"/>
      <point x="872" y="518"/>
      <point x="836" y="557"/>
      <point x="772" y="557" type="curve" smooth="yes"/>
      <point x="705" y="557"/>
      <point x="673" y="520"/>
    </contour>
    <contour>
      <point x="107" y="-20" type="curve"/>
      <point x="134" y="-20" type="line"/>
      <point x="138" y="30"/>
      <point x="170" y="45"/>
      <point x="210" y="45" type="curve" smooth="yes"/>
      <point x="243" y="45"/>
      <point x="280" y="30"/>
      <point x="284" y="-20" type="curve"/>
      <point x="313" y="-20" type="line"/>
      <point x="309" y="36"/>
      <point x="273" y="75"/>
      <point x="209" y="75" type="curve" smooth="yes"/>
      <point x="142" y="75"/>
      <point x="110" y="38"/>
    </contour>
    <contour>
      <point x="387" y="-157" type="curve"/>
      <point x="414" y="-157" type="line"/>
      <point x="418" y="-107"/>
      <point x="450" y="-92"/>
      <point x="490" y="-92" type="curve" smooth="yes"/>
      <point x="523" y="-92"/>
      <point x="560" y="-107"/>
      <point x="564" y="-157" type="curve"/>
      <point x="593" y="-157" type="line"/>
      <point x="589" y="-101"/>
      <point x="553" y="-62"/>
      <point x="489" y="-62" type="curve" smooth="yes"/>
      <point x="422" y="-62"/>
      <point x="390" y="-99"/>
    </contour>
    <contour>
      <point x="20" y="224" type="curve"/>
      <point x="47" y="224" type="line"/>
      <point x="51" y="274"/>
      <point x="83" y="289"/>
      <point x="123" y="289" type="curve" smooth="yes"/>
      <point x="156" y="289"/>
      <point x="193" y="274"/>
      <point x="197" y="224" type="curve"/>
      <point x="226" y="224" type="line"/>
      <point x="222" y="280"/>
      <point x="186" y="319"/>
      <point x="122" y="319" type="curve" smooth="yes"/>
      <point x="55" y="319"/>
      <point x="23" y="282"/>
    </contour>
    <contour>
      <point x="107" y="462" type="curve"/>
      <point x="134" y="462" type="line"/>
      <point x="138" y="512"/>
      <point x="170" y="527"/>
      <point x="210" y="527" type="curve" smooth="yes"/>
      <point x="243" y="527"/>
      <point x="280" y="512"/>
      <point x="284" y="462" type="curve"/>
      <point x="313" y="462" type="line"/>
      <point x="309" y="518"/>
      <point x="273" y="557"/>
      <point x="209" y="557" type="curve" smooth="yes"/>
      <point x="142" y="557"/>
      <point x="110" y="520"/>
    </contour>
    <contour>
      <point x="670" y="-20" type="curve"/>
      <point x="697" y="-20" type="line"/>
      <point x="701" y="30"/>
      <point x="733" y="45"/>
      <point x="773" y="45" type="curve" smooth="yes"/>
      <point x="806" y="45"/>
      <point x="843" y="30"/>
      <point x="847" y="-20" type="curve"/>
      <point x="876" y="-20" type="line"/>
      <point x="872" y="36"/>
      <point x="836" y="75"/>
      <point x="772" y="75" type="curve" smooth="yes"/>
      <point x="705" y="75"/>
      <point x="673" y="38"/>
    </contour>
    <contour>
      <point x="763" y="224" type="curve"/>
      <point x="790" y="224" type="line"/>
      <point x="794" y="274"/>
      <point x="826" y="289"/>
      <point x="866" y="289" type="curve" smooth="yes"/>
      <point x="899" y="289"/>
      <point x="936" y="274"/>
      <point x="940" y="224" type="curve"/>
      <point x="969" y="224" type="line"/>
      <point x="965" y="280"/>
      <point x="929" y="319"/>
      <point x="865" y="319" type="curve" smooth="yes"/>
      <point x="798" y="319"/>
      <point x="766" y="282"/>
    </contour>
    <contour>
      <point x="387" y="601" type="curve"/>
      <point x="414" y="601" type="line"/>
      <point x="418" y="651"/>
      <point x="450" y="666"/>
      <point x="490" y="666" type="curve" smooth="yes"/>
      <point x="523" y="666"/>
      <point x="560" y="651"/>
      <point x="564" y="601" type="curve"/>
      <point x="593" y="601" type="line"/>
      <point x="589" y="657"/>
      <point x="553" y="696"/>
      <point x="489" y="696" type="curve" smooth="yes"/>
      <point x="422" y="696"/>
      <point x="390" y="659"/>
    </contour>
  </outline>
</glyph>
<glyph name="uni1D7B" format="2">
  <advance width="324"/>
  <unicode hex="1D7B"/>
  <anchor x="98" y="0" name="bottom"/>
  <anchor x="212" y="536" name="top"/>
  <outline>
    <contour>
      <point x="68" y="269" type="line"/>
      <point x="247" y="269" type="line"/>
      <point x="252" y="294" type="line"/>
      <point x="73" y="294" type="line"/>
    </contour>
    <component base="uni026A"/>
  </outline>
</glyph>
<glyph name="turnedSansSerifL" format="2">
  <advance width="546"/>
  <unicode hex="2142"/>
  <outline>
    <contour>
      <point x="209" y="0" type="line"/>
      <point x="435" y="0" type="line"/>
      <point x="439" y="20" type="line"/>
      <point x="396" y="20" type="line" smooth="yes"/>
      <point x="348" y="20"/>
      <point x="344" y="30"/>
      <point x="359" y="108" type="curve" smooth="yes"/>
      <point x="468" y="619" type="line" smooth="yes"/>
      <point x="483" y="689"/>
      <point x="490" y="694"/>
      <point x="549" y="694" type="curve" smooth="yes"/>
      <point x="582" y="694" type="line"/>
      <point x="587" y="714" type="line"/>
      <point x="124" y="714" type="line"/>
      <point x="74" y="509" type="line"/>
      <point x="99" y="509" type="line"/>
      <point x="123" y="601" type="line" smooth="yes"/>
      <point x="144" y="683"/>
      <point x="155" y="689"/>
      <point x="218" y="689" type="curve" smooth="yes"/>
      <point x="455" y="689" type="line"/>
      <point x="331" y="108" type="line" smooth="yes"/>
      <point x="315" y="31"/>
      <point x="306" y="20"/>
      <point x="256" y="20" type="curve" smooth="yes"/>
      <point x="213" y="20" type="line"/>
    </contour>
  </outline>
</glyph>
<glyph name="uni2C61" format="2">
  <advance width="239"/>
  <unicode hex="2C61"/>
  <anchor x="63" y="0" name="bottom"/>
  <anchor x="225" y="760" name="top"/>
  <anchor x="179" y="268" name="center"/>
  <anchor x="328" y="760" name="topright"/>
  <outline>
    <contour>
      <point x="14" y="281" type="line"/>
      <point x="217" y="281" type="line"/>
      <point x="222" y="306" type="line"/>
      <point x="132" y="306" type="line"/>
      <point x="149" y="390" type="line"/>
      <point x="239" y="390" type="line"/>
      <point x="244" y="415" type="line"/>
      <point x="41" y="415" type="line"/>
      <point x="36" y="390" type="line"/>
      <point x="127" y="390" type="line"/>
      <point x="109" y="306" type="line"/>
      <point x="19" y="306" type="line"/>
    </contour>
    <component base="l"/>
  </outline>
</glyph>
<glyph name="uniA743" format="2">
  <advance width="533"/>
  <unicode hex="A743"/>
  <anchor x="210" y="0" name="bottom"/>
  <anchor x="372" y="760" name="top"/>
  <anchor x="617" y="760" name="topright"/>
  <outline>
    <contour>
      <point x="194" y="77" type="line"/>
      <point x="469" y="246" type="line"/>
      <point x="457" y="267" type="line"/>
      <point x="182" y="98" type="line"/>
    </contour>
    <component base="k"/>
  </outline>
</glyph>
<glyph name="uniA749" format="2">
  <advance width="239"/>
  <unicode hex="A749"/>
  <anchor x="65" y="0" name="bottom"/>
  <anchor x="179" y="268" name="center"/>
  <anchor x="227" y="760" name="top"/>
  <anchor x="328" y="760" name="topright"/>
  <outline>
    <contour>
      <point x="86" y="606" type="line"/>
      <point x="280" y="606" type="line"/>
      <point x="285" y="631" type="line"/>
      <point x="92" y="631" type="line"/>
    </contour>
    <component base="l"/>
  </outline>
</glyph>
<glyph name="uniA750" format="2">
  <advance width="529"/>
  <unicode hex="A750"/>
  <anchor x="101" y="0" name="bottom"/>
  <anchor x="379" y="714" name="top"/>
  <anchor x="640" y="714" name="topright"/>
  <outline>
    <contour>
      <point x="13" y="146" type="line"/>
      <point x="255" y="146" type="line"/>
      <point x="261" y="171" type="line"/>
      <point x="19" y="171" type="line"/>
    </contour>
    <component base="P"/>
  </outline>
</glyph>
<glyph name="uniA757" format="2">
  <advance width="469"/>
  <unicode hex="A757"/>
  <anchor x="120" y="-240" name="bottom"/>
  <anchor x="285" y="536" name="top"/>
  <anchor x="499" y="536" name="topright"/>
  <outline>
    <contour>
      <point x="164" y="-120" type="line"/>
      <point x="409" y="-120" type="line"/>
      <point x="414" y="-95" type="line"/>
      <point x="169" y="-95" type="line"/>
    </contour>
    <component base="q"/>
  </outline>
</glyph>
<glyph name="uniA767" format="2">
  <advance width="483"/>
  <unicode hex="A767"/>
  <anchor x="134" y="-240" name="bottom"/>
  <anchor x="347" y="760" name="top"/>
  <outline>
    <contour>
      <point x="-116" y="-107" type="line"/>
      <point x="168" y="-107" type="line"/>
      <point x="172" y="-82" type="line"/>
      <point x="-112" y="-82" type="line"/>
    </contour>
    <component base="thorn"/>
  </outline>
</glyph>
<glyph name="uniA793" format="2">
  <advance width="493"/>
  <unicode hex="A793"/>
  <anchor x="243" y="0" name="bottom"/>
  <anchor x="347" y="536" name="top"/>
  <anchor x="523" y="536" name="topright"/>
  <outline>
    <contour>
      <point x="25" y="263" type="line"/>
      <point x="241" y="263" type="line"/>
      <point x="247" y="288" type="line"/>
      <point x="31" y="288" type="line"/>
    </contour>
    <component base="c" xOffset="52"/>
  </outline>
</glyph>
<glyph name="uniA7A8" format="2">
  <advance width="489"/>
  <unicode hex="A7A8"/>
  <anchor x="189" y="0" name="bottom"/>
  <anchor x="341" y="714" name="top"/>
  <anchor x="564" y="714" name="topright"/>
  <outline>
    <contour>
      <point x="56" y="312" type="line"/>
      <point x="455" y="392" type="line"/>
      <point x="463" y="419" type="line"/>
      <point x="64" y="339" type="line"/>
    </contour>
    <component base="S"/>
  </outline>
</glyph>
<glyph name="uniA7AE" format="2">
  <advance width="536"/>
  <unicode hex="A7AE"/>
  <guideline x="343" y="695" angle="78"/>
  <guideline x="125" y="649" angle="78"/>
  <outline>
    <contour>
      <point x="-13" y="0" type="line"/>
      <point x="435" y="0" type="line"/>
      <point x="471" y="151" type="line"/>
      <point x="446" y="151" type="line"/>
      <point x="434" y="103" type="line" smooth="yes"/>
      <point x="415" y="27"/>
      <point x="411" y="25"/>
      <point x="327" y="25" type="curve" smooth="yes"/>
      <point x="228" y="25" type="line"/>
      <point x="370" y="689" type="line"/>
      <point x="487" y="689" type="line" smooth="yes"/>
      <point x="539" y="689"/>
      <point x="543" y="682"/>
      <point x="543" y="651" type="curve" smooth="yes"/>
      <point x="543" y="627"/>
      <point x="540" y="600"/>
      <point x="534" y="563" type="curve"/>
      <point x="559" y="563" type="line"/>
      <point x="587" y="714" type="line"/>
      <point x="139" y="714" type="line"/>
      <point x="103" y="563" type="line"/>
      <point x="128" y="563" type="line"/>
      <point x="140" y="611" type="line" smooth="yes"/>
      <point x="159" y="687"/>
      <point x="163" y="689"/>
      <point x="247" y="689" type="curve" smooth="yes"/>
      <point x="342" y="689" type="line"/>
      <point x="200" y="25" type="line"/>
      <point x="87" y="25" type="line" smooth="yes"/>
      <point x="35" y="25"/>
      <point x="31" y="32"/>
      <point x="31" y="63" type="curve" smooth="yes"/>
      <point x="31" y="87"/>
      <point x="34" y="114"/>
      <point x="40" y="151" type="curve"/>
      <point x="15" y="151" type="line"/>
    </contour>
  </outline>
</glyph>
<glyph name="uniFE2D" format="2">
  <unicode hex="FE2D"/>
  <anchor x="-57" y="0" name="_bottom"/>
  <outline>
    <contour>
      <point x="-466" y="-186" type="line"/>
      <point x="272" y="-186" type="line"/>
      <point x="278" y="-158" type="line"/>
      <point x="-460" y="-158" type="line"/>
    </contour>
  </outline>
</glyph>
<glyph name="uniFE2E" format="2">
  <unicode hex="FE2E"/>
  <anchor x="-26" y="536" name="_top"/>
  <outline>
    <contour>
      <point x="-13" y="572" type="curve" smooth="yes"/>
      <point x="15" y="572"/>
      <point x="30" y="585"/>
      <point x="32" y="616" type="curve"/>
      <point x="204" y="616" type="line"/>
      <point x="204" y="657" type="line"/>
      <point x="-4" y="657" type="line" smooth="yes"/>
      <point x="-41" y="657"/>
      <point x="-55" y="638"/>
      <point x="-55" y="617" type="curve" smooth="yes"/>
      <point x="-55" y="589"/>
      <point x="-39" y="572"/>
    </contour>
  </outline>
</glyph>
<glyph name="carondot" format="2">
  <advance width="577"/>
  <outline>
    <contour>
      <point x="372" y="747" type="curve" smooth="yes"/>
      <point x="387" y="747"/>
      <point x="397" y="755"/>
      <point x="404" y="787" type="curve" smooth="yes"/>
      <point x="410" y="818"/>
      <point x="404" y="827"/>
      <point x="389" y="827" type="curve" smooth="yes"/>
      <point x="375" y="827"/>
      <point x="364" y="818"/>
      <point x="358" y="787" type="curve" smooth="yes"/>
      <point x="351" y="755"/>
      <point x="358" y="747"/>
    </contour>
    <component base="caron" xOffset="125"/>
  </outline>
</glyph>
<glyph name="uni1D24.old" format="2">
  <advance width="394"/>
  <anchor x="135" y="0" name="bottom"/>
  <anchor x="287" y="536" name="top"/>
  <outline>
    <contour>
      <point x="151" y="-10" type="curve" smooth="yes"/>
      <point x="224" y="-10"/>
      <point x="287" y="18"/>
      <point x="287" y="48" type="curve" smooth="yes"/>
      <point x="287" y="58"/>
      <point x="282" y="64"/>
      <point x="273" y="67" type="curve"/>
      <point x="259" y="39"/>
      <point x="217" y="15"/>
      <point x="159" y="15" type="curve" smooth="yes"/>
      <point x="84" y="15"/>
      <point x="38" y="50"/>
      <point x="38" y="112" type="curve" smooth="yes"/>
      <point x="38" y="175"/>
      <point x="80" y="219"/>
      <point x="202" y="266" type="curve" smooth="yes"/>
      <point x="311" y="308"/>
      <point x="356" y="363"/>
      <point x="356" y="435" type="curve" smooth="yes"/>
      <point x="356" y="504"/>
      <point x="310" y="544"/>
      <point x="232" y="544" type="curve" smooth="yes"/>
      <point x="159" y="544"/>
      <point x="110" y="498"/>
      <point x="110" y="447" type="curve" smooth="yes"/>
      <point x="110" y="428"/>
      <point x="121" y="415"/>
      <point x="134" y="415" type="curve"/>
      <point x="137" y="480"/>
      <point x="178" y="519"/>
      <point x="232" y="519" type="curve" smooth="yes"/>
      <point x="294" y="519"/>
      <point x="328" y="487"/>
      <point x="328" y="433" type="curve" smooth="yes"/>
      <point x="328" y="374"/>
      <point x="292" y="331"/>
      <point x="196" y="294" type="curve" smooth="yes"/>
      <point x="63" y="243"/>
      <point x="10" y="187"/>
      <point x="10" y="112" type="curve" smooth="yes"/>
      <point x="10" y="35"/>
      <point x="67" y="-10"/>
    </contour>
  </outline>
</glyph>
<glyph name="zero.slash" format="2">
  <advance width="511"/>
  <outline>
    <contour>
      <point x="69" y="155" type="line"/>
      <point x="478" y="571" type="line"/>
      <point x="464" y="592" type="line"/>
      <point x="55" y="176" type="line"/>
    </contour>
    <component base="zero"/>
  </outline>
</glyph>
